<svg id="Group_6361" data-name="Group 6361" xmlns="http://www.w3.org/2000/svg" xmlns:xlink="http://www.w3.org/1999/xlink" width="218.488" height="68.031" viewBox="0 0 218.488 68.031">
  <defs>
    <clipPath id="clip-path">
      <rect id="Rectangle_2663" data-name="Rectangle 2663" width="218.488" height="68.031"/>
    </clipPath>
  </defs>
  <g id="Group_4170" data-name="Group 4170" clip-path="url(#clip-path)">
    <path id="Path_5403" data-name="Path 5403" d="M109.347,20.8l-4.31,6.625h4.853l2.826-4.24Zm7.393,35.408V51.219H105.615V44.594H115.76V39.609H105.615V34.656h8.732V29.67H100V56.209Zm23.224-11.186-19.2-15.851V56.209h5.615V40.961l19.2,15.709v-27h-5.615Zm21.16,11.186V34.656h7.1V29.67H148.841v4.986h6.666V56.209Zm25.615,0h6.125l-14.277-27-14.24,27h5.8l1.739-3.564h13.079Zm-8.37-16.815,4.131,8.265h-8.189Zm16.848-9.725V56.209H211.7V51.219H200.834V29.67Zm30.691,27a13.733,13.733,0,1,0-13.988-13.749A13.844,13.844,0,0,0,225.907,56.67m-.037-22.193a8.447,8.447,0,0,1,.037,16.887,8.447,8.447,0,0,1-.037-16.887" transform="translate(-21.367 -4.72)"/>
    <path id="Path_5404" data-name="Path 5404" d="M0,0H69.2V68.031H0ZM31.44,48.84l7.553,7.851H51.75l-9.97-10.47c6.441-2.923,10.4-8.887,10.4-17.047,0-9.86-8.3-17.835-19.133-17.835H17.014V56.692h9.6V48.84Zm-4.831-8.526V19.861h5.82c6.69,0,10.093,4.506,10.093,10.045,0,6.332-3.836,10.409-10.649,10.409Z"/>
  </g>
</svg>
