<svg xmlns="http://www.w3.org/2000/svg" width="41.669" height="51.5" viewBox="0 0 41.669 51.5">
  <g id="Group_890" data-name="Group 890" transform="translate(-2.774 1.87)">
    <ellipse id="Ellipse_26" data-name="Ellipse 26" cx="19.998" cy="21" rx="19.998" ry="21" transform="translate(4.447 7.63)" fill="rgba(255,121,0,0.08)"/>
    <g id="headset" transform="translate(-1.726 -1.87)">
      <path id="Path_5625" data-name="Path 5625" d="M20.948,2.741A13.706,13.706,0,0,0,7.241,16.448V28.784H4.5V16.448a16.448,16.448,0,1,1,32.9,0V28.784H34.654V16.448A13.706,13.706,0,0,0,20.948,2.741Z" transform="translate(0)" fill="#ff7900"/>
      <path id="Path_5626" data-name="Path 5626" d="M29.172,18.491a2.741,2.741,0,0,1,2.741-2.741H37.4V26.715a2.741,2.741,0,0,1-2.741,2.741H31.913a2.741,2.741,0,0,1-2.741-2.741Zm-16.448,0A2.741,2.741,0,0,0,9.983,15.75H4.5V26.715a2.741,2.741,0,0,0,2.741,2.741H9.983a2.741,2.741,0,0,0,2.741-2.741Z" transform="translate(0 3.439)" fill="#ff7900"/>
      <path id="Path_5627" data-name="Path 5627" d="M33.323,19.125A1.371,1.371,0,0,1,34.693,20.5V28.72a6.853,6.853,0,0,1-6.853,6.853H18.246a1.371,1.371,0,0,1,0-2.741H27.84a4.112,4.112,0,0,0,4.112-4.112V20.5A1.371,1.371,0,0,1,33.323,19.125Z" transform="translate(2.702 4.176)" fill="#ff7900"/>
      <path id="Path_5628" data-name="Path 5628" d="M14.625,31.991a2.741,2.741,0,0,1,2.741-2.741h2.741a2.741,2.741,0,0,1,0,5.483H17.366A2.741,2.741,0,0,1,14.625,31.991Z" transform="translate(2.211 6.387)" fill="#ff7900"/>
    </g>
  </g>
</svg>
