<svg xmlns="http://www.w3.org/2000/svg" width="19.551" height="15.879" viewBox="0 0 19.551 15.879">
  <path id="Icon_awesome-twitter" data-name="Icon awesome-twitter" d="M17.542,7.338c.012.174.012.347.012.521a11.323,11.323,0,0,1-11.4,11.4A11.323,11.323,0,0,1,0,17.461a8.289,8.289,0,0,0,.968.05A8.025,8.025,0,0,0,5.942,15.8,4.014,4.014,0,0,1,2.2,13.02a5.053,5.053,0,0,0,.757.062,4.238,4.238,0,0,0,1.054-.136A4.008,4.008,0,0,1,.794,9.013v-.05a4.035,4.035,0,0,0,1.811.509A4.013,4.013,0,0,1,1.365,4.113,11.39,11.39,0,0,0,9.627,8.306a4.523,4.523,0,0,1-.1-.918,4.011,4.011,0,0,1,6.935-2.742,7.889,7.889,0,0,0,2.543-.968,4,4,0,0,1-1.762,2.208,8.033,8.033,0,0,0,2.307-.62,8.614,8.614,0,0,1-2.01,2.072Z" transform="translate(0 -3.381)" fill="#fff"/>
</svg>
