<svg xmlns="http://www.w3.org/2000/svg" width="21.712" height="15.266" viewBox="0 0 21.712 15.266">
  <path id="Icon_awesome-youtube" data-name="Icon awesome-youtube" d="M22.308,6.889a2.728,2.728,0,0,0-1.92-1.932C18.7,4.5,11.906,4.5,11.906,4.5s-6.789,0-8.483.457A2.728,2.728,0,0,0,1.5,6.889a28.619,28.619,0,0,0-.454,5.26,28.619,28.619,0,0,0,.454,5.26,2.687,2.687,0,0,0,1.92,1.9c1.693.457,8.483.457,8.483.457s6.789,0,8.483-.457a2.687,2.687,0,0,0,1.92-1.9,28.619,28.619,0,0,0,.454-5.26,28.619,28.619,0,0,0-.454-5.26ZM9.685,15.377V8.92l5.675,3.228L9.685,15.377Z" transform="translate(-1.05 -4.5)" fill="#fff"/>
</svg>
