<svg xmlns="http://www.w3.org/2000/svg" width="20.989" height="20.989" viewBox="0 0 20.989 20.989">
  <g id="Icon_feather-instagram" data-name="Icon feather-instagram" transform="translate(0.75 0.75)">
    <path id="Path_5323" data-name="Path 5323" d="M7.872,3h9.745a4.872,4.872,0,0,1,4.872,4.872v9.745a4.872,4.872,0,0,1-4.872,4.872H7.872A4.872,4.872,0,0,1,3,17.617V7.872A4.872,4.872,0,0,1,7.872,3Z" transform="translate(-3 -3)" fill="none" stroke="#fff" strokeLinecap="round" strokeLinejoin="round" strokeWidth="1.5"/>
    <path id="Path_5324" data-name="Path 5324" d="M19.818,15.261a3.9,3.9,0,1,1-3.284-3.284,3.9,3.9,0,0,1,3.284,3.284Z" transform="translate(-6.176 -6.13)" fill="none" stroke="#fff" strokeLinecap="round" strokeLinejoin="round" strokeWidth="1.5"/>
    <path id="Path_5325" data-name="Path 5325" d="M26.25,9.75h0" transform="translate(-11.146 -5.365)" fill="none" stroke="#fff" strokeLinecap="round" strokeLinejoin="round" strokeWidth="1.5"/>
  </g>
</svg>
