<svg xmlns="http://www.w3.org/2000/svg" width="20.406" height="20.406" viewBox="0 0 20.406 20.406">
  <path id="Icon_awesome-whatsapp" data-name="Icon awesome-whatsapp" d="M17.349,5.215a10.115,10.115,0,0,0-15.915,12.2L0,22.656l5.361-1.407a10.081,10.081,0,0,0,4.833,1.23h0A10.209,10.209,0,0,0,20.406,12.366,10.152,10.152,0,0,0,17.349,5.215ZM10.2,20.774A8.39,8.39,0,0,1,5.917,19.6l-.305-.182-3.179.834.847-3.1-.2-.319A8.421,8.421,0,1,1,18.7,12.366a8.5,8.5,0,0,1-8.5,8.408Zm4.609-6.295c-.251-.128-1.494-.738-1.726-.82s-.4-.128-.569.128-.651.82-.8.993-.3.191-.547.064a6.877,6.877,0,0,1-3.439-3.006c-.26-.446.26-.414.742-1.38a.468.468,0,0,0-.023-.442c-.064-.128-.569-1.371-.779-1.877s-.414-.424-.569-.433S6.782,7.7,6.614,7.7a.936.936,0,0,0-.674.314,2.839,2.839,0,0,0-.884,2.109,4.95,4.95,0,0,0,1.029,2.614A11.29,11.29,0,0,0,10.4,16.552a4.944,4.944,0,0,0,3.034.633,2.588,2.588,0,0,0,1.7-1.2,2.113,2.113,0,0,0,.146-1.2C15.227,14.666,15.058,14.6,14.808,14.48Z" transform="translate(0 -2.25)" fill="#2fa123"/>
</svg>
