<svg xmlns="http://www.w3.org/2000/svg" width="25.732" height="20.899" viewBox="0 0 25.732 20.899">
  <path id="Icon_awesome-twitter" data-name="Icon awesome-twitter" d="M23.087,8.589c.016.229.016.457.016.686A14.9,14.9,0,0,1,8.1,24.28,14.9,14.9,0,0,1,0,21.913a10.91,10.91,0,0,0,1.274.065,10.562,10.562,0,0,0,6.547-2.253A5.283,5.283,0,0,1,2.89,16.067a6.651,6.651,0,0,0,1,.082,5.578,5.578,0,0,0,1.388-.18,5.275,5.275,0,0,1-4.229-5.176v-.065a5.311,5.311,0,0,0,2.384.669A5.282,5.282,0,0,1,1.8,4.344,14.991,14.991,0,0,0,12.67,9.863a5.953,5.953,0,0,1-.131-1.208,5.279,5.279,0,0,1,9.127-3.608,10.383,10.383,0,0,0,3.347-1.274A5.26,5.26,0,0,1,22.7,6.679a10.572,10.572,0,0,0,3.037-.816,11.337,11.337,0,0,1-2.645,2.727Z" transform="translate(0 -3.381)" fill="#22aade"/>
</svg>
