<svg id="Group_1892" data-name="Group 1892" xmlns="http://www.w3.org/2000/svg" xmlns:xlink="http://www.w3.org/1999/xlink" width="20" height="20" viewBox="0 0 20 20">
  <defs>
    <linearGradient id="linear-gradient" x1="0.5" y1="0.401" x2="0.5" y2="1" gradientUnits="objectBoundingBox">
      <stop offset="0" stop-color="#14213d"/>
      <stop offset="1" stop-color="#04060a" stop-opacity="0.969"/>
    </linearGradient>
  </defs>
  <path id="Path_2489" data-name="Path 2489" d="M0,0H20V20H0Z" fill="none"/>
  <path id="Path_2490" data-name="Path 2490" d="M2.194,5.707l7.4-4.426a.8.8,0,0,1,.823,0l7.39,4.427A.4.4,0,0,1,18,6.05V16.2a.8.8,0,0,1-.8.8H2.8a.8.8,0,0,1-.8-.8V6.05a.4.4,0,0,1,.194-.343ZM3.6,6.728V15.4H16.4V6.727L10,2.9,3.6,6.727Zm6.448,4.443,4.237-3.563,1.03,1.221-5.256,4.42L4.691,8.835,5.709,7.6l4.339,3.568Z" transform="translate(0 0)" fill="url(#linear-gradient)"/>
</svg>
