<svg id="Group_1894" data-name="Group 1894" xmlns="http://www.w3.org/2000/svg" xmlns:xlink="http://www.w3.org/1999/xlink" width="20" height="20" viewBox="0 0 20 20">
  <defs>
    <linearGradient id="linear-gradient" x1="0.5" y1="0.461" x2="0.5" y2="1" gradientUnits="objectBoundingBox">
      <stop offset="0" stop-color="#14213d"/>
      <stop offset="1" stop-color="#04060a" stop-opacity="0.969"/>
    </linearGradient>
  </defs>
  <path id="Path_2491" data-name="Path 2491" d="M0,0H20V20H0Z" fill="none"/>
  <path id="Path_2492" data-name="Path 2492" d="M7.951,8.975a8.21,8.21,0,0,0,3.074,3.074l.688-.963a.778.778,0,0,1,1.006-.23,8.884,8.884,0,0,0,3.565,1.061.778.778,0,0,1,.716.775v3.47a.778.778,0,0,1-.7.774A12.063,12.063,0,0,1,3.064,3.7.778.778,0,0,1,3.838,3h3.47a.778.778,0,0,1,.775.716A8.884,8.884,0,0,0,9.144,7.281a.778.778,0,0,1-.23,1.006l-.963.688ZM5.99,8.464,7.468,7.408a10.43,10.43,0,0,1-.853-2.853H4.563c0,.129-.007.259-.007.389a10.5,10.5,0,0,0,10.5,10.5c.13,0,.26,0,.389-.008V13.386a10.43,10.43,0,0,1-2.853-.853L11.536,14.01a9.677,9.677,0,0,1-1.235-.583l-.045-.026A9.766,9.766,0,0,1,6.6,9.744L6.573,9.7A9.677,9.677,0,0,1,5.99,8.464Z" fill="url(#linear-gradient)"/>
</svg>
