<svg xmlns="http://www.w3.org/2000/svg" width="19.992" height="19.992" viewBox="0 0 19.992 19.992">
  <path id="Icon_awesome-linkedin-in" data-name="Icon awesome-linkedin-in" d="M4.475,19.993H.33V6.645H4.475ZM2.4,4.824A2.412,2.412,0,1,1,4.8,2.4,2.421,2.421,0,0,1,2.4,4.824ZM19.988,19.993H15.852V13.5c0-1.549-.031-3.534-2.155-3.534-2.155,0-2.485,1.682-2.485,3.423v6.609H7.071V6.645h3.975V8.466H11.1A4.355,4.355,0,0,1,15.026,6.31c4.195,0,4.966,2.762,4.966,6.35v7.332Z" transform="translate(0 -0.001)" fill="#fff"/>
</svg>
