<svg xmlns="http://www.w3.org/2000/svg" width="62.178" height="62.178" viewBox="0 0 62.178 62.178">
  <g id="clock-svgrepo-com" transform="translate(0 -540.36)">
    <g id="Group_4459" data-name="Group 4459" transform="translate(0 540.36)">
      <g id="Group_4458" data-name="Group 4458" transform="translate(0 0)">
        <path id="Path_5580" data-name="Path 5580" d="M248.92,677.155,236.548,668.5V653.634a1.274,1.274,0,0,0-2.548,0v15.544a1.27,1.27,0,0,0,.548,1.045l12.92,9.034a1.259,1.259,0,0,0,.726.229h0a1.268,1.268,0,0,0,1.045-.561A1.283,1.283,0,0,0,248.92,677.155Z" transform="translate(-204.185 -638.09)" fill="#962ca2"/>
        <path id="Path_5581" data-name="Path 5581" d="M53.055,549.483h0a31.007,31.007,0,1,0,9.123,21.966A30.865,30.865,0,0,0,53.055,549.483ZM32.363,599.964h0v-5.2a1.274,1.274,0,0,0-2.548,0v5.2A28.58,28.58,0,0,1,2.574,572.723h5.2a1.274,1.274,0,0,0,0-2.548h-5.2a28.58,28.58,0,0,1,27.241-27.241v5.2a1.274,1.274,0,1,0,2.548,0v-5.2A28.58,28.58,0,0,1,59.6,570.175h-5.2a1.274,1.274,0,0,0,0,2.548h5.2A28.58,28.58,0,0,1,32.363,599.964Z" transform="translate(0 -540.36)" fill="#962ca2"/>
      </g>
    </g>
  </g>
</svg>
