<svg xmlns="http://www.w3.org/2000/svg" width="69.701" height="54.922" viewBox="0 0 69.701 54.922">
  <g id="crane-svgrepo-com" transform="translate(0 -51.949)">
    <path id="Path_5604" data-name="Path 5604" d="M56.448,60.448H41.8V83.166L22.386,54.782l0,0A6.442,6.442,0,0,0,10.6,58.393V70.41h1.422a3.6,3.6,0,1,1-3.6,3.6H5.583a6.444,6.444,0,1,0,7.866-6.286V63.735a6.432,6.432,0,0,0,8.325-.968l6.081,22.6H0V98.979H5.051a7.892,7.892,0,0,0,15.784,0H47.86a7.892,7.892,0,0,0,15.784,0H69.7V76.443Zm-39.4,1.544a3.6,3.6,0,1,1,3.6-3.6A3.6,3.6,0,0,1,17.048,61.992Zm7.878,1.543,14.933,21.83H30.8Zm-11.983,40.37a4.926,4.926,0,1,1,4.927-4.926A4.932,4.932,0,0,1,12.943,103.905Zm7.312-7.892a7.889,7.889,0,0,0-14.623,0H2.845v-7.8H41.8v7.8H20.255Zm35.5,7.892a4.926,4.926,0,1,1,4.927-4.926A4.932,4.932,0,0,1,55.752,103.905Zm10.983-7.892H63.064a7.889,7.889,0,0,0-14.624,0H44.768v-32.6H55.055l11.68,14.1v18.5Z" fill="#7198a8"/>
    <path id="Path_5605" data-name="Path 5605" d="M333.6,158.247v10.64H349l-8.545-10.64Zm2.966,7.674v-4.708h2.469l3.78,4.708Z" transform="translate(-286.144 -91.177)" fill="#7198a8"/>
  </g>
</svg>
