<svg xmlns="http://www.w3.org/2000/svg" width="64.58" height="64.581" viewBox="0 0 64.58 64.581">
  <g id="happy-svgrepo-com" transform="translate(-0.001)">
    <path id="Path_5600" data-name="Path 5600" d="M32.291,64.581A32.291,32.291,0,1,1,64.581,32.29,32.327,32.327,0,0,1,32.291,64.581Zm0-61.4A29.106,29.106,0,1,0,61.4,32.29,29.139,29.139,0,0,0,32.291,3.185Z" fill="#98866d"/>
    <path id="Path_5601" data-name="Path 5601" d="M52.092,92.819c-5.33,0-9.665-3.865-9.665-8.615h3.185c0,2.995,2.907,5.431,6.48,5.431S58.572,87.2,58.572,84.2h3.185C61.756,88.954,57.421,92.819,52.092,92.819Z" transform="translate(-19.907 -39.509)" fill="#98866d"/>
    <path id="Path_5602" data-name="Path 5602" d="M33.017,58.776H29.832c0-2.886-1.962-5.234-4.375-5.234s-4.375,2.348-4.375,5.234H17.9c0-4.642,3.391-8.418,7.56-8.418S33.017,54.134,33.017,58.776Z" transform="translate(-8.397 -23.628)" fill="#98866d"/>
    <path id="Path_5603" data-name="Path 5603" d="M90.406,58.776H87.221c0-2.886-1.962-5.234-4.375-5.234s-4.375,2.348-4.375,5.234H75.287c0-4.642,3.391-8.418,7.56-8.418S90.406,54.134,90.406,58.776Z" transform="translate(-35.325 -23.628)" fill="#98866d"/>
  </g>
</svg>
