<svg xmlns="http://www.w3.org/2000/svg" width="71.796" height="52.574" viewBox="0 0 71.796 52.574">
  <g id="web-code-svgrepo-com" transform="translate(0 -65.595)">
    <path id="Path_5582" data-name="Path 5582" d="M70.331,65.6H1.465A1.465,1.465,0,0,0,0,67.06V116.7a1.465,1.465,0,0,0,1.465,1.465H70.331A1.465,1.465,0,0,0,71.8,116.7V67.06A1.465,1.465,0,0,0,70.331,65.6Zm-1.465,2.93V77.7H2.93V68.525ZM2.93,115.238V80.632H68.866v34.606H2.93Z" fill="#1e6298"/>
    <path id="Path_5583" data-name="Path 5583" d="M58.759,109.838h.869a1.465,1.465,0,0,0,0-2.93h-.869a1.465,1.465,0,0,0,0,2.93Z" transform="translate(-48.899 -35.26)" fill="#1e6298"/>
    <path id="Path_5584" data-name="Path 5584" d="M102.2,109.838h.867a1.465,1.465,0,0,0,0-2.93H102.2a1.465,1.465,0,0,0,0,2.93Z" transform="translate(-85.977 -35.26)" fill="#1e6298"/>
    <path id="Path_5585" data-name="Path 5585" d="M145.638,109.838h.868a1.465,1.465,0,0,0,0-2.93h-.868a1.465,1.465,0,0,0,0,2.93Z" transform="translate(-123.048 -35.26)" fill="#1e6298"/>
    <path id="Path_5586" data-name="Path 5586" d="M64.259,203.166h-5.5a1.465,1.465,0,1,0,0,2.93h5.5a1.465,1.465,0,0,0,0-2.93Z" transform="translate(-48.902 -117.414)" fill="#1e6298"/>
    <path id="Path_5587" data-name="Path 5587" d="M198.469,203.166H161.438a1.465,1.465,0,0,0,0,2.93h37.031a1.465,1.465,0,1,0,0-2.93Z" transform="translate(-136.533 -117.414)" fill="#1e6298"/>
    <path id="Path_5588" data-name="Path 5588" d="M64.259,251.542h-5.5a1.465,1.465,0,0,0,0,2.93h5.5a1.465,1.465,0,0,0,0-2.93Z" transform="translate(-48.902 -158.702)" fill="#1e6298"/>
    <path id="Path_5589" data-name="Path 5589" d="M350.976,251.542H340.127a1.465,1.465,0,1,0,0,2.93h10.849a1.465,1.465,0,1,0,0-2.93Z" transform="translate(-289.04 -158.702)" fill="#1e6298"/>
    <path id="Path_5590" data-name="Path 5590" d="M252.08,254.472a1.465,1.465,0,0,0,0-2.93h-9.692a1.465,1.465,0,0,0,0,2.93Z" transform="translate(-205.622 -158.702)" fill="#1e6298"/>
    <path id="Path_5591" data-name="Path 5591" d="M161.438,254.472h5.641a1.465,1.465,0,0,0,0-2.93h-5.641a1.465,1.465,0,0,0,0,2.93Z" transform="translate(-136.533 -158.702)" fill="#1e6298"/>
    <path id="Path_5592" data-name="Path 5592" d="M64.259,299.916h-5.5a1.465,1.465,0,1,0,0,2.93h5.5a1.465,1.465,0,1,0,0-2.93Z" transform="translate(-48.902 -199.988)" fill="#1e6298"/>
    <path id="Path_5593" data-name="Path 5593" d="M198.469,299.916H161.438a1.465,1.465,0,1,0,0,2.93h37.031a1.465,1.465,0,1,0,0-2.93Z" transform="translate(-136.533 -199.988)" fill="#1e6298"/>
    <path id="Path_5594" data-name="Path 5594" d="M64.259,348.293h-5.5a1.465,1.465,0,1,0,0,2.93h5.5a1.465,1.465,0,1,0,0-2.93Z" transform="translate(-48.902 -241.276)" fill="#1e6298"/>
    <path id="Path_5595" data-name="Path 5595" d="M350.976,348.293H340.127a1.465,1.465,0,1,0,0,2.93h10.849a1.465,1.465,0,1,0,0-2.93Z" transform="translate(-289.04 -241.276)" fill="#1e6298"/>
    <path id="Path_5596" data-name="Path 5596" d="M252.08,348.293h-9.692a1.465,1.465,0,1,0,0,2.93h9.692a1.465,1.465,0,0,0,0-2.93Z" transform="translate(-205.622 -241.276)" fill="#1e6298"/>
    <path id="Path_5597" data-name="Path 5597" d="M167.08,348.293h-5.641a1.465,1.465,0,1,0,0,2.93h5.641a1.465,1.465,0,0,0,0-2.93Z" transform="translate(-136.533 -241.276)" fill="#1e6298"/>
  </g>
</svg>
